<svg width="23" height="23" viewBox="0 0 23 23" fill="none" xmlns="http://www.w3.org/2000/svg">
<mask id="mask0_5_2" style="mask-type:alpha" maskUnits="userSpaceOnUse" x="0" y="0" width="23" height="23">
<g clip-path="url(#clip0_5_2)">
<path d="M9.7208 0.954239C4.3608 0.954239 0 5.28598 0 10.6103C0 15.9347 4.36085 20.2664 9.7208 20.2664C15.0808 20.2664 19.4416 15.9347 19.4416 10.6103C19.4416 5.28598 15.0808 0.954239 9.7208 0.954239ZM9.7208 18.6791C5.2394 18.6791 1.59358 15.0592 1.59358 10.6103C1.59358 6.16107 5.2394 2.54149 9.7208 2.54149C14.2022 2.54149 17.848 6.16107 17.848 10.6103C17.8481 15.0592 14.2022 18.6791 9.7208 18.6791Z" fill="black"/>
<path d="M21.8098 21.5016L16.5775 16.3164C16.2654 16.0074 15.761 16.0088 15.4505 16.3194C15.1403 16.6302 15.1417 17.1326 15.4535 17.4419L20.6857 22.627C20.8414 22.781 21.0443 22.858 21.2477 22.858C21.4525 22.858 21.657 22.7799 21.8127 22.6241C22.1229 22.3132 22.1216 21.8109 21.8098 21.5016Z" fill="black"/>
</g>
</mask>
<g mask="url(#mask0_5_2)">
<rect x="-1.10205" y="-0.170959" width="29.76" height="26.3491" fill="#949494"/>
</g>
<defs>
<clipPath id="clip0_5_2">
<rect width="22.0444" height="21.9576" fill="white" transform="translate(0 0.926804)"/>
</clipPath>
</defs>
</svg>
